<svg xmlns="http://www.w3.org/2000/svg" viewBox="0 0 410 96" fill="none">
  <defs>
    <linearGradient id="pompcore-wordmark-gradient" x1="8" y1="10" x2="402" y2="86" gradientUnits="userSpaceOnUse">
      <stop offset="0" stop-color="#7C3AED"/>
      <stop offset="0.52" stop-color="#FFD700"/>
      <stop offset="1" stop-color="#EC4899"/>
    </linearGradient>
    <filter id="pompcore-wordmark-glow" x="-8%" y="-25%" width="116%" height="150%">
      <feDropShadow dx="0" dy="0" stdDeviation="3.2" flood-color="#A855F7" flood-opacity="0.28"/>
    </filter>
  </defs>
  <g filter="url(#pompcore-wordmark-glow)" fill="url(#pompcore-wordmark-gradient)">
    <path d="M10 16h26l14 12v16L38 56H24v24H10zM24 30v12h10l4-4v-4l-4-4z"/>
    <path fill-rule="evenodd" clip-rule="evenodd" d="M70 16h16l12 12v40L86 80H70L58 68V28zM72 30v36h12l2-2V32l-2-2z"/>
    <path d="M106 80V16h14l10 18 10-18h14v64h-14V40l-10 15-10-15v40z"/>
    <path d="M164 16h26l14 12v16l-12 12h-14v24h-14zM178 30v12h10l4-4v-4l-4-4z"/>
    <path d="M214 16h40v14h-26v36h26v14h-40l-12-12V28z"/>
    <path fill-rule="evenodd" clip-rule="evenodd" d="M270 16h16l12 12v40L286 80h-16l-12-12V28zM272 30v36h12l2-2V32l-2-2z"/>
    <path d="M306 16h26l14 12v16l-12 12h-4l16 24h-16l-14-22h-2v22h-14zM320 30v14h10l4-4v-6l-4-4z"/>
    <path d="M356 16h44v14h-30v10h22v14h-22v12h30v14h-44z"/>
  </g>
  <path d="M30 10c8-5 19-5 27 0" stroke="#F8ECFF" stroke-opacity=".45" stroke-width="3" stroke-linecap="round"/>
  <path d="M45 10c5 0 9 4 9 9" stroke="#F8ECFF" stroke-opacity=".45" stroke-width="3" stroke-linecap="round"/>
  <circle cx="57" cy="20" r="3" fill="#FFD700"/>
  <path d="M292 86h24" stroke="#F8ECFF" stroke-opacity=".24" stroke-width="4" stroke-linecap="round"/>
</svg>
