<svg xmlns="http://www.w3.org/2000/svg" viewBox="0 0 256 96" fill="none">
  <defs>
    <linearGradient id="quest-wordmark-gradient" x1="6" y1="10" x2="250" y2="84" gradientUnits="userSpaceOnUse">
      <stop offset="0" stop-color="#3B82F6"/>
      <stop offset="1" stop-color="#06B6D4"/>
    </linearGradient>
    <filter id="quest-wordmark-glow" x="-10%" y="-24%" width="120%" height="148%">
      <feDropShadow dx="0" dy="0" stdDeviation="3" flood-color="#3B82F6" flood-opacity="0.22"/>
    </filter>
  </defs>
  <g filter="url(#quest-wordmark-glow)" fill="url(#quest-wordmark-gradient)">
    <path fill-rule="evenodd" clip-rule="evenodd" d="M22 16h16l12 12v40L38 80H22L10 68V28zM24 30v36h12l2-2V32l-2-2z"/>
    <path d="M36 52l18 18H40L28 58z"/>
    <path d="M60 16h14v50h16V16h14v52L92 80H72L60 68z"/>
    <path d="M110 16h44v14h-30v10h22v14h-22v12h30v14h-44z"/>
    <path d="M168 16h42v14h-28v10h16l12 12v16l-12 12h-40V66h26v-12h-14l-12-12V28z"/>
    <path d="M214 16h44v14h-15v22l-7 12-7-12V30h-15z"/>
  </g>
  <path d="M34 8v8" stroke="#D6F5FF" stroke-opacity=".62" stroke-width="3" stroke-linecap="round"/>
  <path d="M30 12h8" stroke="#D6F5FF" stroke-opacity=".62" stroke-width="3" stroke-linecap="round"/>
</svg>
