<svg xmlns="http://www.w3.org/2000/svg" viewBox="0 0 256 96" fill="none">
  <defs>
    <linearGradient id="vault-wordmark-gradient" x1="6" y1="10" x2="250" y2="84" gradientUnits="userSpaceOnUse">
      <stop offset="0" stop-color="#10B981"/>
      <stop offset="1" stop-color="#06D6A0"/>
    </linearGradient>
    <filter id="vault-wordmark-glow" x="-10%" y="-24%" width="120%" height="148%">
      <feDropShadow dx="0" dy="0" stdDeviation="3" flood-color="#10B981" flood-opacity="0.22"/>
    </filter>
  </defs>
  <g filter="url(#vault-wordmark-glow)" fill="url(#vault-wordmark-gradient)">
    <path fill-rule="evenodd" clip-rule="evenodd" d="M10 16h14l10 40 10-40h14L44 80H24zM34 36l4 5-4 5-4-5zM32 46h4v10h-4z"/>
    <path d="M76 80H62l18-64h16l18 64H100l-3-12H79zm6-26h12l-6-24z"/>
    <path d="M118 16h14v50h16V16h14v52l-12 12h-20l-12-12z"/>
    <path d="M176 16h14v50h30v14h-44z"/>
    <path d="M214 16h44v14h-15v50h-14V30h-15z"/>
  </g>
  <path d="M34 10l4 4-4 4-4-4z" fill="#CFFBEF" fill-opacity=".72"/>
</svg>
